<svg xmlns="http://www.w3.org/2000/svg" width="42" height="42" viewBox="0 0 42 42">
  <g id="Group_10" data-name="Group 10" transform="translate(-1764.578 -1556)">
    <g id="Avatar" transform="translate(1764.578 1556)">
      <rect id="Rectangle_5" data-name="Rectangle 5" width="42" height="42" rx="21" fill="#f6a800"/>
    </g>
    <g id="Tutor" transform="translate(1769.947 1558)">
      <g id="Tutor-2" data-name="Tutor">
        <g id="Group_33" data-name="Group 33" transform="translate(0)">
          <g id="Group_32" data-name="Group 32">
            <g id="Untitled-1">
              <path id="Path_8" data-name="Path 8" d="M8.4,198.167a2.676,2.676,0,0,1-2.276.453,3.4,3.4,0,0,1-1.282-.7c-1.21-1.143-2.377-2.332-3.539-3.524a3.835,3.835,0,0,1-.765-4.866c.531-1.035,1.17-2.017,1.8-3,.958-1.494,1.893-3.007,2.94-4.436a6.105,6.105,0,0,1,5.031-2.614q5.31-.063,10.623,0a6,6,0,0,1,5.056,2.629c1.554,2.227,2.985,4.543,4.434,6.841a4.526,4.526,0,0,1,.792,3.108,3.882,3.882,0,0,1-1.111,2.187q-1.845,1.9-3.74,3.746a2.665,2.665,0,0,1-3.144.378c-.108-.058-.214-.117-.356-.193-.052.512-.1.99-.15,1.468a.722.722,0,0,1-.788.711.7.7,0,0,1-.7-.793c.066-1.016.161-2.029.25-3.043q.206-2.355.419-4.71.222-2.485.448-4.97a.693.693,0,0,1,.547-.636.751.751,0,0,1,.845.327q1.2,1.657,2.411,3.313c.212.291.426.581.636.873a.805.805,0,0,1-.11,1.271c-1.017,1.021-2.044,2.033-3.054,3.061a1.252,1.252,0,0,0,.261,2.023,1.192,1.192,0,0,0,1.446-.18c1.264-1.25,2.522-2.5,3.759-3.779a2.192,2.192,0,0,0,.482-2.447,5.216,5.216,0,0,0-.459-.972c-1.386-2.177-2.752-4.369-4.195-6.508a5.112,5.112,0,0,0-4.871-2.219.337.337,0,0,0-.241.166q-1.461,3.479-2.9,6.965c-.008.019,0,.047.01.1.181.068.376.138.57.214.361.143.468.34.337.695q-.629,1.708-1.278,3.41a.5.5,0,0,1-.713.333c-.682-.225-1.36-.462-2.037-.7-.382-.137-.477-.338-.335-.721.32-.872.661-1.737.966-2.613a.914.914,0,0,0-.008-.594c-.954-2.327-1.928-4.646-2.888-6.97a.414.414,0,0,0-.433-.3,5.214,5.214,0,0,0-4.32,1.691,14.312,14.312,0,0,0-1.365,1.9q-1.616,2.5-3.19,5.031a3.806,3.806,0,0,0-.692,1.976,2.113,2.113,0,0,0,.636,1.542q1.873,1.921,3.786,3.8a1.22,1.22,0,0,0,1.741-.063,1.233,1.233,0,0,0-.009-1.745C6.7,194.088,5.7,193.1,4.71,192.11c-.627-.627-.642-.833-.113-1.557q1.441-1.97,2.878-3.941c.282-.385.571-.521.913-.406a.806.806,0,0,1,.55.8c.187,2.226.387,4.451.587,6.676.164,1.817.333,3.634.5,5.451a4.551,4.551,0,0,1,.019.484.713.713,0,0,1-.716.742.721.721,0,0,1-.771-.69C8.5,199.186,8.458,198.7,8.4,198.167ZM15.637,187.2c.892-2.141,1.736-4.17,2.588-6.217H13.046C13.9,183.043,14.749,185.07,15.637,187.2Zm8.116,1.913-.093,0c-.118,1.338-.237,2.677-.354,4.006l1.95-1.949ZM7.974,193.167C7.85,191.786,7.73,190.451,7.6,189L6,191.193Z" transform="translate(0.003 -166.049)"/>
              <path id="Path_9" data-name="Path 9" d="M135.536,0a5.965,5.965,0,1,1-5.986,5.894A5.951,5.951,0,0,1,135.536,0ZM135.5,10.438a4.474,4.474,0,1,0-4.46-4.506A4.5,4.5,0,0,0,135.5,10.438Z" transform="translate(-119.874 0)"/>
            </g>
          </g>
        </g>
      </g>
    </g>
  </g>
</svg>
